<?xml version="1.0"?>
<svg width="1280" height="1280" xmlns="http://www.w3.org/2000/svg" xmlns:svg="http://www.w3.org/2000/svg" preserveAspectRatio="xMidYMid meet">
 <metadata>Created by potrace 1.15, written by Peter Selinger 2001-2017</metadata>
 <g class="layer">
  <title>Layer 1</title>
  <g fill="#000000" id="svg_1" transform="translate(0 1280) scale(0.1 -0.1)">
   <path d="m6555,12254c-501,-22 -884,-68 -1283,-155c-1377,-301 -2493,-1063 -3283,-2239c-149,-222 -267,-429 -409,-715c-234,-474 -375,-848 -499,-1325c-155,-595 -219,-1146 -208,-1800c11,-696 106,-1257 317,-1874c244,-713 595,-1280 1110,-1796c398,-397 818,-695 1335,-946c835,-405 1870,-634 2997,-663c1000,-26 1841,75 2548,305c682,221 1314,561 1830,983c389,318 735,683 962,1016c128,187 254,415 244,440c-2,7 -71,48 -153,92l-148,78l-557,3l-557,3l-63,-83c-231,-305 -507,-559 -858,-793c-766,-510 -1546,-751 -2610,-805c-1113,-57 -2206,136 -3056,540c-1116,530 -1830,1511 -2048,2815c-139,833 -75,1746 179,2525c156,481 414,997 685,1374c263,366 616,714 983,970c216,151 554,337 811,446c465,197 977,319 1517,361c209,16 758,7 939,-15c564,-69 1040,-210 1505,-446c692,-350 1185,-817 1512,-1430c210,-395 338,-817 384,-1265c14,-143 14,-509 0,-650c-79,-765 -415,-1503 -930,-2047c-293,-309 -783,-625 -1063,-684c-159,-34 -292,0 -336,86c-48,93 -38,152 297,1700c110,509 317,1470 461,2135c143,666 263,1218 266,1228c5,16 -27,17 -575,17l-580,0l-19,-27c-69,-100 -79,-132 -144,-445c-34,-170 -66,-307 -69,-305c-4,1 -40,45 -80,97c-88,115 -276,310 -379,393c-362,293 -821,457 -1275,457c-610,0 -1309,-314 -1847,-828c-592,-568 -1081,-1518 -1222,-2375c-41,-247 -50,-367 -50,-642c1,-437 59,-769 200,-1155c47,-126 198,-432 269,-544c338,-534 829,-871 1425,-978c161,-29 429,-29 590,0c470,85 934,346 1368,769c59,56 107,103 108,103c0,0 7,-26 14,-58c26,-119 83,-289 117,-352c134,-246 377,-404 718,-466c125,-23 547,-27 690,-6c563,81 1023,289 1530,691c147,116 524,491 665,661c664,800 1010,1638 1081,2620c15,203 6,651 -15,840c-86,743 -321,1396 -724,2015c-107,164 -252,358 -375,500c-123,143 -394,408 -527,517c-797,650 -1801,1026 -2980,1118c-137,10 -609,19 -735,14zm-85,-3558c328,-21 669,-234 874,-546c326,-494 340,-1360 36,-2187c-69,-186 -220,-491 -317,-638c-256,-388 -641,-721 -1001,-865c-186,-75 -274,-93 -457,-94c-138,-1 -172,2 -245,22c-306,83 -602,348 -754,673c-115,248 -166,513 -166,867c0,375 65,739 207,1156c165,487 382,855 688,1162c233,236 424,351 694,421c89,22 272,43 331,37c14,-2 63,-5 110,-8z" fill="#ffff00" id="svg_2"/>
  </g>
 </g>
</svg>