<?xml version="1.0"?>
<svg width="830" height="1280" xmlns="http://www.w3.org/2000/svg" xmlns:svg="http://www.w3.org/2000/svg" preserveAspectRatio="xMidYMid meet">
 <metadata>Created by potrace 1.15, written by Peter Selinger 2001-2017</metadata>
 <g class="layer">
  <title>Layer 1</title>
  <g fill="#000000" id="svg_1" transform="translate(0 1280) scale(0.1 -0.1)">
   <path d="m3865,12799c-555,-44 -1043,-176 -1530,-414c-1457,-712 -2370,-2223 -2322,-3840c19,-605 152,-1155 406,-1680c109,-225 183,-353 331,-575c65,-96 856,-1369 1760,-2827c903,-1459 1646,-2653 1650,-2653c4,0 747,1194 1650,2652c904,1459 1695,2732 1760,2828c148,222 222,350 331,575c421,869 520,1869 279,2821c-244,958 -822,1795 -1640,2371c-696,491 -1551,759 -2404,752c-94,-1 -216,-5 -271,-10zm635,-1764c440,-80 813,-271 1120,-575c769,-761 825,-1980 130,-2812c-335,-402 -817,-663 -1344,-728c-114,-14 -378,-14 -492,0c-853,105 -1550,715 -1764,1544c-141,545 -52,1136 243,1613c330,531 862,876 1497,968c130,19 481,13 610,-10z" fill="#ffff00" id="svg_2"/>
  </g>
 </g>
</svg>