<?xml version="1.0"?>
<svg width="1280" height="720" xmlns="http://www.w3.org/2000/svg" xmlns:svg="http://www.w3.org/2000/svg" preserveAspectRatio="xMidYMid meet">
 <metadata>Created by potrace 1.15, written by Peter Selinger 2001-2017</metadata>
 <g class="layer">
  <title>Layer 1</title>
  <g fill="#000000" id="svg_1" transform="translate(0 720) scale(0.1 -0.1)">
   <path d="m6255,6844c-540,-35 -1107,-229 -1555,-532c-473,-320 -848,-752 -1091,-1256c-133,-276 -216,-536 -273,-856c-43,-240 -52,-602 -22,-880c40,-374 177,-822 362,-1188l53,-103l-123,-367c-68,-202 -191,-570 -274,-818c-84,-249 -152,-459 -152,-469c0,-9 13,-22 29,-28c26,-10 29,-14 24,-45c-6,-32 -5,-34 18,-27c41,13 936,298 1314,420c198,63 368,115 378,115c9,0 52,-17 95,-39c366,-184 756,-294 1171,-332c164,-14 498,-7 659,16c954,132 1766,659 2266,1468c163,264 318,632 401,952c79,307 117,688 96,982c-54,781 -356,1473 -881,2017c-509,527 -1157,853 -1895,952c-108,14 -482,26 -600,18zm391,-684c357,-29 650,-108 959,-259c419,-206 770,-514 1030,-906c200,-301 323,-625 371,-979c23,-168 23,-508 0,-680c-163,-1209 -1161,-2141 -2372,-2217c-427,-26 -824,44 -1212,214c-107,47 -284,143 -339,183c-17,13 -39,24 -49,24c-9,0 -222,-65 -472,-145c-250,-80 -456,-145 -457,-143c-2,2 62,197 141,433c79,237 144,442 144,458c0,16 -18,53 -44,90c-418,599 -554,1426 -351,2127c45,152 82,245 155,390c200,391 505,732 880,982c473,316 1064,472 1616,428z" fill="#ffff00" id="svg_2"/>
   <path d="m5323,5236c-23,-7 -56,-23 -75,-34c-51,-32 -199,-190 -245,-262c-147,-229 -180,-534 -92,-832c67,-225 149,-397 299,-629c190,-292 313,-450 510,-653c296,-305 545,-476 927,-635c282,-118 490,-185 607,-197c81,-8 258,20 362,58c144,52 309,168 373,262c64,96 130,313 138,457l6,95l-31,36c-22,24 -112,78 -294,176c-432,232 -487,254 -555,218c-17,-8 -81,-73 -141,-143c-178,-207 -215,-243 -245,-243c-38,0 -287,127 -403,205c-135,92 -223,166 -334,281c-132,137 -275,333 -355,486l-18,36l72,79c95,101 134,162 172,268c39,108 37,141 -20,290c-51,133 -92,243 -163,434c-58,157 -101,221 -161,240c-57,17 -287,22 -334,7z" fill="#ffff00" id="svg_3"/>
  </g>
 </g>
</svg>